<?xml version="1.0" standalone="no"?>
<!DOCTYPE svg PUBLIC "-//W3C//DTD SVG 20010904//EN"
 "http://www.w3.org/TR/2001/REC-SVG-20010904/DTD/svg10.dtd">
<svg version="1.0" xmlns="http://www.w3.org/2000/svg"
 width="700.000000pt" height="700.000000pt" viewBox="0 0 700.000000 700.000000"
 preserveAspectRatio="xMidYMid meet">
<metadata>
Created for Krungsri iFIN
</metadata>
<g transform="translate(0.000000,700.000000) scale(0.100000,-0.100000)"
fill="#000000" stroke="none">
<!-- Circle background -->
<path d="M3280 6494 c-19 -2 -84 -9 -145 -14 -311 -30 -675 -138 -982 -291
-774 -385 -1357 -1088 -1588 -1914 -61 -218 -86 -366 -105 -600 -12 -155 -6
-478 11 -620 98 -796 463 -1496 1059 -2030 445 -399 989 -666 1575 -772 202
-36 312 -46 530 -46 165 0 315 8 400 20 28 4 75 11 105 16 325 47 702 178 1010
350 870 486 1468 1341 1615 2307 25 169 30 236 30 435 0 198 -8 315 -34 485
-147 962 -742 1818 -1590 2290 -280 156 -570 262 -881 322 -120 24 -149 28
-295 43 -111 11 -423 21 -515 17z"/>

<!-- K -->
<path d="M2950 3500 l0 -1200 200 0 200 0 0 500 0 500 200 -300 200 -300 250 0 250 0 -300 400 -300 400 350 600 350 600 -250 0 -250 0 -250 -450 -250 -450 0 450 0 450 -200 0 -200 0 0 -1200z"/>

<!-- ฿ Symbol -->
<path d="M4100 3810 l0 -890 180 0 180 0 0 200 0 200 -100 0 -100 0 0 200 0 200 100 0 100 0 0 200 c0 110 -3 200 -7 200 -5 0 -26 9 -48 20 -22 11 -55 20 -73 20 -18 0 -51 -9 -73 -20 -22 -11 -43 -20 -48 -20 -4 0 -8 -90 -8 -200 l0 -200 -100 0 -100 0 0 -200 0 -200 100 0 100 0 0 -200 0 -200 -100 0 -100 0 0 -200 0 -200 300 0 300 0 0 890 0 890 -300 0 -300 0 0 -890z"/>

<!-- Graph trend line -->
<path d="M2200 2800 c0 -6 73 -69 162 -140 90 -71 179 -143 198 -159 l35 -30 193 154 192 155 195 -156 c107 -86 202 -158 210 -160 8 -2 111 73 228 166 l213 170 -48 38 c-27 20 -126 100 -220 177 l-173 140 -192 -154 -193 -153 -195 156 c-107 86 -201 156 -210 156 -8 0 -103 -70 -210 -156 l-195 -156 -192 154 -193 153 -27 -22 c-16 -12 -28 -27 -28 -33z"/>
</g>
</svg>