<?xml version="1.0" encoding="UTF-8"?>
<svg xmlns="http://www.w3.org/2000/svg" width="200" height="200" viewBox="0 0 200 200" fill="none">
  <circle cx="100" cy="100" r="90" fill="#FFBB38" opacity="0.5"/>
  <path d="M155 75H130C127.24 75 125 77.24 125 80V120C125 122.76 127.24 125 130 125H155C157.76 125 160 122.76 160 120V80C160 77.24 157.76 75 155 75Z" fill="#FFBB38"/>
  <path d="M155 65H130C127.24 65 125 67.24 125 70V110C125 112.76 127.24 115 130 115H155C157.76 115 160 112.76 160 110V70C160 67.24 157.76 65 155 65Z" fill="#FFD580"/>
  <path d="M125 70V110C125 112.76 127.24 115 130 115H155C157.76 115 160 112.76 160 110V70C160 67.24 157.76 65 155 65H130C127.24 65 125 67.24 125 70ZM150 105H135V100H150V105ZM150 95H135V90H150V95ZM150 85H135V80H150V85Z" fill="#FFFFFF"/>
  <path d="M80 65C80 62.24 77.76 60 75 60H50C47.24 60 45 62.24 45 65V105C45 107.76 47.24 110 50 110H75C77.76 110 80 107.76 80 105V65ZM70 100H55V95H70V100ZM70 90H55V85H70V90ZM70 80H55V75H70V80Z" fill="#FFBB38"/>
  <path d="M50 120C47.24 120 45 122.24 45 125V130C45 132.76 47.24 135 50 135H105V120H50Z" fill="#FFBB38"/>
  <path d="M105 95C113.28 95 120 88.28 120 80C120 71.72 113.28 65 105 65C96.72 65 90 71.72 90 80C90 88.28 96.72 95 105 95Z" fill="#FFBB38"/>
  <path d="M105 85C107.76 85 110 82.76 110 80C110 77.24 107.76 75 105 75C102.24 75 100 77.24 100 80C100 82.76 102.24 85 105 85Z" fill="#FFFFFF"/>
</svg>