<?xml version="1.0" encoding="UTF-8"?>
<svg xmlns="http://www.w3.org/2000/svg" width="200" height="200" viewBox="0 0 200 200" fill="none">
  <circle cx="100" cy="100" r="90" fill="#16a5a3" opacity="0.5"/>
  <path d="M145 70H55C52.24 70 50 72.24 50 75V125C50 127.76 52.24 130 55 130H145C147.76 130 150 127.76 150 125V75C150 72.24 147.76 70 145 70Z" fill="#16a5a3"/>
  <rect x="60" y="85" width="80" height="10" rx="2" fill="white"/>
  <rect x="60" y="100" width="50" height="5" rx="2" fill="white"/>
  <rect x="60" y="110" width="30" height="5" rx="2" fill="white"/>
  <path d="M130 140C136.075 140 141 135.075 141 129C141 122.925 136.075 118 130 118C123.925 118 119 122.925 119 129C119 135.075 123.925 140 130 140Z" fill="#16a5a3"/>
  <path d="M130 137C134.418 137 138 133.418 138 129C138 124.582 134.418 121 130 121C125.582 121 122 124.582 122 129C122 133.418 125.582 137 130 137Z" fill="white"/>
  <path d="M130 133C132.209 133 134 131.209 134 129C134 126.791 132.209 125 130 125C127.791 125 126 126.791 126 129C126 131.209 127.791 133 130 133Z" fill="#16a5a3"/>
  <path d="M70 65C77.1797 65 83 59.1797 83 52C83 44.8203 77.1797 39 70 39C62.8203 39 57 44.8203 57 52C57 59.1797 62.8203 65 70 65Z" fill="#16a5a3"/>
  <path d="M70 61C74.9706 61 79 56.9706 79 52C79 47.0294 74.9706 43 70 43C65.0294 43 61 47.0294 61 52C61 56.9706 65.0294 61 70 61Z" fill="white"/>
  <path d="M70 56C72.2091 56 74 54.2091 74 52C74 49.7909 72.2091 48 70 48C67.7909 48 66 49.7909 66 52C66 54.2091 67.7909 56 70 56Z" fill="#16a5a3"/>
</svg>