<?xml version="1.0" encoding="UTF-8"?>
<svg xmlns="http://www.w3.org/2000/svg" width="200" height="200" viewBox="0 0 200 200" fill="none">
  <circle cx="100" cy="100" r="90" fill="#5d4a4a" opacity="0.5"/>
  <path d="M120 60H80C77.24 60 75 62.24 75 65V135C75 137.76 77.24 140 80 140H120C122.76 140 125 137.76 125 135V65C125 62.24 122.76 60 120 60Z" fill="#5d4a4a"/>
  <rect x="80" y="70" width="40" height="60" rx="2" fill="#444444"/>
  <rect x="85" y="75" width="30" height="45" rx="1" fill="white"/>
  <rect x="95" y="135" width="10" height="2" rx="1" fill="white"/>
  <circle cx="100" cy="130" r="3" fill="white"/>
  <path d="M100 82.5L106 95H94L100 82.5Z" fill="#5d4a4a"/>
  <rect x="95" y="100" width="10" height="10" rx="1" fill="#5d4a4a"/>
  <circle cx="100" cy="115" r="5" fill="#5d4a4a"/>
  <path d="M145 110H135C133.34 110 132 111.34 132 113V123C132 124.66 133.34 126 135 126H145C146.66 126 148 124.66 148 123V113C148 111.34 146.66 110 145 110Z" fill="#5d4a4a"/>
  <path d="M65 90H55C53.34 90 52 91.34 52 93V103C52 104.66 53.34 106 55 106H65C66.66 106 68 104.66 68 103V93C68 91.34 66.66 90 65 90Z" fill="#5d4a4a"/>
  <path d="M58 85H45C43.34 85 42 86.34 42 88V98C42 99.66 43.34 101 45 101H58C59.66 101 61 99.66 61 98V88C61 86.34 59.66 85 58 85Z" fill="#5d4a4a"/>
  <path d="M155 85H142C140.34 85 139 86.34 139 88V98C139 99.66 140.34 101 142 101H155C156.66 101 158 99.66 158 98V88C158 86.34 156.66 85 155 85Z" fill="#5d4a4a"/>
</svg>