<?xml version="1.0" standalone="no"?>
<!DOCTYPE svg PUBLIC "-//W3C//DTD SVG 20010904//EN"
 "http://www.w3.org/TR/2001/REC-SVG-20010904/DTD/svg10.dtd">
<svg version="1.0" xmlns="http://www.w3.org/2000/svg"
 width="512.000000pt" height="512.000000pt" viewBox="0 0 512.000000 512.000000"
 preserveAspectRatio="xMidYMid meet">
<metadata>
Created by potrace 1.16, written by Peter Selinger 2001-2019
</metadata>
<g transform="translate(0.000000,512.000000) scale(0.100000,-0.100000)"
fill="#000000" stroke="none">
<path d="M0 2560 l0 -2560 2560 0 2560 0 0 2560 0 2560 -2560 0 -2560 0 0
-2560z m2477 1813 c-15 -505 -106 -1062 -241 -1459 -42 -125 -126 -324 -137
-324 -4 0 -23 19 -42 43 -151 188 -287 488 -366 807 -55 222 -79 391 -93 663
-14 269 -26 241 132 310 221 96 491 159 709 166 l44 1 -6 -207z m271 196 c218
-24 461 -91 647 -180 l88 -42 -6 -176 c-19 -546 -137 -1015 -342 -1359 -54
-91 -144 -214 -160 -219 -29 -9 -168 382 -234 657 -85 348 -150 876 -151 1208
l0 122 30 0 c17 0 74 -5 128 -11z m-1258 -366 c0 -43 -5 -132 -11 -198 -70
-816 -382 -1408 -871 -1656 l-78 -39 -7 27 c-13 46 -9 391 6 492 81 572 399
1082 875 1405 37 25 72 46 77 46 5 0 9 -35 9 -77z m2173 35 c580 -390 918
-1050 894 -1745 -3 -90 -8 -167 -12 -173 -9 -15 -152 62 -250 134 -418 307
-675 915 -711 1679 -5 112 -4 147 5 147 7 0 40 -19 74 -42z m-2094 -1425 c56
-172 186 -399 313 -545 l49 -57 -27 -53 c-136 -268 -401 -599 -627 -782 -93
-75 -227 -166 -245 -166 -14 0 -111 121 -186 234 -64 96 -170 300 -198 380
-11 34 -11 40 2 44 55 19 223 113 292 164 256 189 449 451 559 759 17 49 35
89 39 89 4 0 17 -30 29 -67z m995 -30 c40 -220 123 -522 206 -748 181 -494
385 -851 657 -1151 46 -50 83 -94 83 -98 0 -8 -101 -58 -206 -102 -440 -182
-942 -200 -1399 -49 -126 41 -345 137 -345 150 0 4 34 44 76 88 234 251 457
624 617 1032 100 255 194 571 242 815 15 74 28 141 31 148 9 31 21 4 38 -85z
m1001 20 c64 -184 182 -388 308 -534 131 -153 322 -299 484 -371 71 -31 74
-34 69 -61 -10 -48 -121 -271 -181 -364 -64 -98 -164 -231 -188 -252 -14 -11
-24 -9 -64 14 -98 57 -242 173 -359 290 -171 171 -312 358 -438 582 l-57 102
62 73 c130 154 277 420 314 571 4 15 11 27 15 27 4 0 20 -35 35 -77z"/>
</g>
</svg>
